# xmcd CD database file
#
# Track frame offsets:
#	150
#	17566
#	35831
#	52530
#	71247
#	84319
#	102054
#	118862
#	132845
#	155686
#	168326
#	191211
#	207476
#
# Disc length: 2933 seconds
#
# Revision: 0
# Processed by: cddbd v1.5.2PL0 Copyright (c) Steve Scherf et al.
# Submitted via: CDex 1.70beta2
#
DISCID=b10b730d
DTITLE=Vanesa Harbek - No es simple Vivir
DYEAR=2016
DGENRE=Blues
TTITLE0=Rooster Blues
TTITLE1=Try a Little Tenderness
TTITLE2=Chain of Fool
TTITLE3=I Just wanna Make Love to You
TTITLE4=I Feel Good
TTITLE5=Caledonia
TTITLE6=If You Love Me Like You Say
TTITLE7=No es simple Vivir
TTITLE8=Proud Mary
TTITLE9=Blues de la Avenida
TTITLE10=No Pierdas el Tiempo
TTITLE11=Para Sentirme Bien
TTITLE12=Natural Woman
EXTD=YEAR: 2016
EXTT0=
EXTT1=
EXTT2=
EXTT3=
EXTT4=
EXTT5=
EXTT6=
EXTT7=
EXTT8=
EXTT9=
EXTT10=
EXTT11=
EXTT12=
PLAYORDER=
